<mxfile host="app.diagrams.net" modified="2024-06-28T12:39:40.833Z" agent="Mozilla/5.0 (Macintosh; Intel Mac OS X 10.15; rv:127.0) Gecko/20100101 Firefox/127.0" etag="g4X_n_dweGFPopfqfIU3" version="24.6.4" type="device">
  <diagram name="Page-1" id="pZG1M59RmN2wXBVbZ4O0">
    <mxGraphModel dx="1434" dy="797" grid="1" gridSize="10" guides="1" tooltips="1" connect="1" arrows="1" fold="1" page="1" pageScale="1" pageWidth="827" pageHeight="1169" math="0" shadow="0">
      <root>
        <mxCell id="0" />
        <mxCell id="1" parent="0" />
        <mxCell id="PcoCoD3mR92E2FILN2pQ-1" value="Utilisateur ( User ) " style="shape=umlActor;verticalLabelPosition=bottom;verticalAlign=top;html=1;outlineConnect=0;" vertex="1" parent="1">
          <mxGeometry x="775" y="430" width="30" height="60" as="geometry" />
        </mxCell>
        <mxCell id="PcoCoD3mR92E2FILN2pQ-2" value="" style="endArrow=none;dashed=1;html=1;rounded=0;entryX=0.5;entryY=0.5;entryDx=0;entryDy=0;entryPerimeter=0;" edge="1" parent="1" target="PcoCoD3mR92E2FILN2pQ-1">
          <mxGeometry width="50" height="50" relative="1" as="geometry">
            <mxPoint x="790" y="800" as="sourcePoint" />
            <mxPoint x="795" y="520" as="targetPoint" />
          </mxGeometry>
        </mxCell>
        <mxCell id="PcoCoD3mR92E2FILN2pQ-3" value="system" style="rounded=0;whiteSpace=wrap;html=1;" vertex="1" parent="1">
          <mxGeometry x="960" y="440" width="120" height="60" as="geometry" />
        </mxCell>
        <mxCell id="PcoCoD3mR92E2FILN2pQ-4" value="" style="endArrow=none;dashed=1;html=1;rounded=0;entryX=0.5;entryY=0.5;entryDx=0;entryDy=0;entryPerimeter=0;" edge="1" parent="1" source="PcoCoD3mR92E2FILN2pQ-5">
          <mxGeometry width="50" height="50" relative="1" as="geometry">
            <mxPoint x="1022.1299999999997" y="1099.6100000000001" as="sourcePoint" />
            <mxPoint x="1017.5" y="500" as="targetPoint" />
          </mxGeometry>
        </mxCell>
        <mxCell id="PcoCoD3mR92E2FILN2pQ-5" value="" style="html=1;points=[];perimeter=orthogonalPerimeter;outlineConnect=0;targetShapes=umlLifeline;portConstraint=eastwest;newEdgeStyle={&quot;edgeStyle&quot;:&quot;elbowEdgeStyle&quot;,&quot;elbow&quot;:&quot;vertical&quot;,&quot;curved&quot;:0,&quot;rounded&quot;:0};" vertex="1" parent="1">
          <mxGeometry x="1010" y="590" width="18" height="210" as="geometry" />
        </mxCell>
        <mxCell id="PcoCoD3mR92E2FILN2pQ-6" value="" style="endArrow=classic;html=1;rounded=0;" edge="1" parent="1" target="PcoCoD3mR92E2FILN2pQ-5">
          <mxGeometry width="50" height="50" relative="1" as="geometry">
            <mxPoint x="791" y="590" as="sourcePoint" />
            <mxPoint x="841" y="540" as="targetPoint" />
          </mxGeometry>
        </mxCell>
        <mxCell id="PcoCoD3mR92E2FILN2pQ-7" value="1 : Validation de la route POST ()" style="edgeLabel;html=1;align=center;verticalAlign=middle;resizable=0;points=[];" vertex="1" connectable="0" parent="PcoCoD3mR92E2FILN2pQ-6">
          <mxGeometry x="0.3152" y="-3" relative="1" as="geometry">
            <mxPoint x="-34" y="-12" as="offset" />
          </mxGeometry>
        </mxCell>
        <mxCell id="PcoCoD3mR92E2FILN2pQ-8" value="serveur" style="rounded=0;whiteSpace=wrap;html=1;" vertex="1" parent="1">
          <mxGeometry x="1175" y="440" width="120" height="60" as="geometry" />
        </mxCell>
        <mxCell id="PcoCoD3mR92E2FILN2pQ-9" value="" style="endArrow=none;dashed=1;html=1;rounded=0;entryX=0.5;entryY=0.5;entryDx=0;entryDy=0;entryPerimeter=0;" edge="1" parent="1" source="PcoCoD3mR92E2FILN2pQ-10">
          <mxGeometry width="50" height="50" relative="1" as="geometry">
            <mxPoint x="1232.5" y="830" as="sourcePoint" />
            <mxPoint x="1232.5" y="500" as="targetPoint" />
          </mxGeometry>
        </mxCell>
        <mxCell id="PcoCoD3mR92E2FILN2pQ-10" value="" style="html=1;points=[];perimeter=orthogonalPerimeter;outlineConnect=0;targetShapes=umlLifeline;portConstraint=eastwest;newEdgeStyle={&quot;edgeStyle&quot;:&quot;elbowEdgeStyle&quot;,&quot;elbow&quot;:&quot;vertical&quot;,&quot;curved&quot;:0,&quot;rounded&quot;:0};" vertex="1" parent="1">
          <mxGeometry x="1225" y="590" width="18" height="210" as="geometry" />
        </mxCell>
        <mxCell id="PcoCoD3mR92E2FILN2pQ-11" value="BDD" style="rounded=0;whiteSpace=wrap;html=1;" vertex="1" parent="1">
          <mxGeometry x="1385" y="440" width="120" height="60" as="geometry" />
        </mxCell>
        <mxCell id="PcoCoD3mR92E2FILN2pQ-12" value="" style="endArrow=none;dashed=1;html=1;rounded=0;entryX=0.5;entryY=0.5;entryDx=0;entryDy=0;entryPerimeter=0;" edge="1" parent="1" source="PcoCoD3mR92E2FILN2pQ-13">
          <mxGeometry width="50" height="50" relative="1" as="geometry">
            <mxPoint x="1442.5" y="830" as="sourcePoint" />
            <mxPoint x="1442.5" y="500" as="targetPoint" />
          </mxGeometry>
        </mxCell>
        <mxCell id="PcoCoD3mR92E2FILN2pQ-13" value="" style="html=1;points=[];perimeter=orthogonalPerimeter;outlineConnect=0;targetShapes=umlLifeline;portConstraint=eastwest;newEdgeStyle={&quot;edgeStyle&quot;:&quot;elbowEdgeStyle&quot;,&quot;elbow&quot;:&quot;vertical&quot;,&quot;curved&quot;:0,&quot;rounded&quot;:0};" vertex="1" parent="1">
          <mxGeometry x="1435" y="590" width="18" height="210" as="geometry" />
        </mxCell>
        <mxCell id="PcoCoD3mR92E2FILN2pQ-14" value="" style="endArrow=classic;html=1;rounded=0;" edge="1" parent="1" target="PcoCoD3mR92E2FILN2pQ-10">
          <mxGeometry width="50" height="50" relative="1" as="geometry">
            <mxPoint x="1030" y="610" as="sourcePoint" />
            <mxPoint x="1185" y="610" as="targetPoint" />
          </mxGeometry>
        </mxCell>
        <mxCell id="PcoCoD3mR92E2FILN2pQ-15" value="1.1 : Envoie informations &lt;br&gt;de la tâche" style="text;html=1;align=center;verticalAlign=middle;resizable=0;points=[];autosize=1;strokeColor=none;fillColor=none;" vertex="1" parent="1">
          <mxGeometry x="1043" y="575" width="160" height="40" as="geometry" />
        </mxCell>
        <mxCell id="PcoCoD3mR92E2FILN2pQ-16" value="Envoie requête table task" style="text;html=1;align=center;verticalAlign=middle;resizable=0;points=[];autosize=1;strokeColor=none;fillColor=none;" vertex="1" parent="1">
          <mxGeometry x="1259" y="598" width="160" height="30" as="geometry" />
        </mxCell>
        <mxCell id="PcoCoD3mR92E2FILN2pQ-17" value="" style="endArrow=classic;html=1;rounded=0;" edge="1" parent="1" target="PcoCoD3mR92E2FILN2pQ-13">
          <mxGeometry width="50" height="50" relative="1" as="geometry">
            <mxPoint x="1245" y="625" as="sourcePoint" />
            <mxPoint x="1295" y="575" as="targetPoint" />
          </mxGeometry>
        </mxCell>
        <mxCell id="PcoCoD3mR92E2FILN2pQ-18" value="Intertion de la tâche dans la table" style="html=1;align=left;spacingLeft=2;endArrow=block;rounded=0;edgeStyle=orthogonalEdgeStyle;curved=0;rounded=0;" edge="1" parent="1">
          <mxGeometry relative="1" as="geometry">
            <mxPoint x="1453" y="625" as="sourcePoint" />
            <Array as="points">
              <mxPoint x="1483" y="655" />
            </Array>
            <mxPoint x="1458" y="655" as="targetPoint" />
          </mxGeometry>
        </mxCell>
        <mxCell id="PcoCoD3mR92E2FILN2pQ-20" value="" style="endArrow=classic;html=1;rounded=0;" edge="1" parent="1">
          <mxGeometry width="50" height="50" relative="1" as="geometry">
            <mxPoint x="1434" y="663" as="sourcePoint" />
            <mxPoint x="1242" y="663" as="targetPoint" />
          </mxGeometry>
        </mxCell>
        <mxCell id="PcoCoD3mR92E2FILN2pQ-21" value="Renvoie la validation de la requête" style="text;html=1;align=center;verticalAlign=middle;resizable=0;points=[];autosize=1;strokeColor=none;fillColor=none;" vertex="1" parent="1">
          <mxGeometry x="1234" y="633" width="210" height="30" as="geometry" />
        </mxCell>
        <mxCell id="PcoCoD3mR92E2FILN2pQ-22" value="" style="endArrow=classic;html=1;rounded=0;" edge="1" parent="1">
          <mxGeometry width="50" height="50" relative="1" as="geometry">
            <mxPoint x="1225" y="680" as="sourcePoint" />
            <mxPoint x="1028" y="680" as="targetPoint" />
          </mxGeometry>
        </mxCell>
        <mxCell id="PcoCoD3mR92E2FILN2pQ-23" value="2 : Affiche message flash succès" style="text;html=1;align=center;verticalAlign=middle;resizable=0;points=[];autosize=1;strokeColor=none;fillColor=none;" vertex="1" parent="1">
          <mxGeometry x="810" y="660" width="200" height="30" as="geometry" />
        </mxCell>
        <mxCell id="PcoCoD3mR92E2FILN2pQ-24" value="" style="endArrow=classic;html=1;rounded=0;" edge="1" parent="1">
          <mxGeometry width="50" height="50" relative="1" as="geometry">
            <mxPoint x="1010" y="693" as="sourcePoint" />
            <mxPoint x="795" y="693" as="targetPoint" />
          </mxGeometry>
        </mxCell>
        <mxCell id="PcoCoD3mR92E2FILN2pQ-25" value="Redirigé sur la liste des tâches&lt;br&gt;(status 302)" style="text;html=1;align=center;verticalAlign=middle;resizable=0;points=[];autosize=1;strokeColor=none;fillColor=none;" vertex="1" parent="1">
          <mxGeometry x="1035" y="640" width="190" height="40" as="geometry" />
        </mxCell>
        <mxCell id="PcoCoD3mR92E2FILN2pQ-106" value="Diagramme de séquence : Création d&#39;une tâche" style="rounded=1;whiteSpace=wrap;html=1;" vertex="1" parent="1">
          <mxGeometry x="1000" y="350" width="340" height="60" as="geometry" />
        </mxCell>
      </root>
    </mxGraphModel>
  </diagram>
</mxfile>
